<svg width="20" height="20" viewBox="0 0 20 20" fill="none" xmlns="http://www.w3.org/2000/svg">
<path fill-rule="evenodd" clip-rule="evenodd" d="M7.49996 18.9582H12.5C17.025 18.9582 18.9583 17.0248 18.9583 12.4998V7.49984C18.9583 2.97484 17.025 1.0415 12.5 1.0415H7.49996C2.97496 1.0415 1.04163 2.97484 1.04163 7.49984V12.4998C1.04163 17.0248 2.97496 18.9582 7.49996 18.9582ZM2.29163 7.49984C2.29163 3.65817 3.65829 2.2915 7.49996 2.2915H12.5C16.3416 2.2915 17.7083 3.65817 17.7083 7.49984V12.4998C17.7083 16.3415 16.3416 17.7082 12.5 17.7082H7.49996C3.65829 17.7082 2.29163 16.3415 2.29163 12.4998V7.49984ZM12.5 11.6582C12.625 11.7832 12.7833 11.8416 12.9416 11.8416C13.1 11.8416 13.2583 11.7832 13.3833 11.6582C13.625 11.4166 13.625 11.0166 13.3833 10.7749L10.4416 7.83323C10.2 7.59156 9.79996 7.59156 9.5583 7.83323L6.61663 10.7749C6.37496 11.0166 6.37496 11.4166 6.61663 11.6582C6.8583 11.8999 7.2583 11.8999 7.49996 11.6582L9.99996 9.15823L12.5 11.6582Z" fill="#999FA6"/>
</svg>
